<?xml version="1.0" encoding="UTF-8"?><svg id="Layer_2" xmlns="http://www.w3.org/2000/svg" viewBox="0 0 200 200"><defs><style>.cls-1{fill:#fff;}</style></defs><g id="Layer_1-2"><polygon class="cls-1" points="100.02 0 115.62 21.54 138.29 7.62 144.46 33.49 170.72 29.3 166.53 55.57 192.4 61.75 178.47 84.41 200 100.02 178.46 115.62 192.38 138.29 166.51 144.46 170.7 170.72 144.43 166.53 138.25 192.4 115.59 178.47 99.98 200 84.38 178.46 61.71 192.38 55.54 166.51 29.28 170.7 33.47 144.43 7.6 138.25 21.53 115.59 0 99.98 21.54 84.38 7.62 61.71 33.49 55.54 29.3 29.28 55.57 33.47 61.75 7.6 84.41 21.53 100.02 0"/></g></svg>