<?xml version="1.0" encoding="UTF-8"?><svg id="Layer_2" xmlns="http://www.w3.org/2000/svg" viewBox="0 0 209.83 209.83"><defs><style>.cls-1{fill:#fff;}</style></defs><g id="Layer_1-2"><path class="cls-1" d="m107.74,45.62L122.39,2.04c1.11-3.3,6.02-2.33,5.78,1.15l-3.16,45.87c-.2,2.84,3.33,4.3,5.2,2.16l30.22-34.66c2.29-2.63,6.45.15,4.9,3.28l-20.48,41.17c-1.27,2.55,1.43,5.25,3.98,3.98l41.18-20.46c3.12-1.55,5.9,2.61,3.27,4.9l-34.67,30.2c-2.15,1.87-.69,5.4,2.16,5.21l45.88-3.14c3.48-.24,4.45,4.67,1.15,5.78l-43.59,14.63c-2.7.91-2.7,4.73,0,5.63l43.59,14.65c3.3,1.11,2.33,6.02-1.15,5.78l-45.87-3.16c-2.84-.2-4.3,3.33-2.16,5.2l34.66,30.22c2.63,2.29-.15,6.45-3.28,4.9l-41.17-20.48c-2.55-1.27-5.25,1.43-3.98,3.98l20.46,41.18c1.55,3.12-2.61,5.9-4.9,3.27l-30.2-34.67c-1.87-2.15-5.4-.69-5.21,2.16l3.14,45.88c.24,3.48-4.67,4.45-5.78,1.15l-14.63-43.59c-.91-2.7-4.73-2.7-5.63,0l-14.65,43.59c-1.11,3.3-6.02,2.33-5.78-1.15l3.16-45.87c.2-2.84-3.33-4.3-5.2-2.16l-30.22,34.66c-2.29,2.63-6.45-.15-4.9-3.28l20.48-41.17c1.27-2.55-1.43-5.25-3.98-3.98l-41.18,20.46c-3.12,1.55-5.9-2.61-3.27-4.9l34.67-30.2c2.15-1.87.69-5.4-2.16-5.21l-45.88,3.14c-3.48.24-4.45-4.67-1.15-5.78l43.59-14.63c2.7-.91,2.7-4.73,0-5.63L2.04,87.44c-3.3-1.11-2.33-6.02,1.15-5.78l45.87,3.16c2.84.2,4.3-3.33,2.16-5.2l-34.66-30.22c-2.63-2.29.15-6.45,3.28-4.9l41.17,20.48c2.55,1.27,5.25-1.43,3.98-3.98l-20.46-41.18c-1.55-3.12,2.61-5.9,4.9-3.27l30.2,34.67c1.87,2.15,5.4.69,5.21-2.16l-3.14-45.88c-.24-3.48,4.67-4.45,5.78-1.15l14.63,43.59c.91,2.7,4.73,2.7,5.63,0Z"/></g></svg>